<?xml version="1.0" encoding="utf-8"?>
<!-- Generator: Adobe Illustrator 24.0.1, SVG Export Plug-In . SVG Version: 6.00 Build 0)  -->
<svg version="1.1" id="Layer_1" xmlns="http://www.w3.org/2000/svg" xmlns:xlink="http://www.w3.org/1999/xlink" x="0px" y="0px"
	 viewBox="0 0 307.8 45.2" style="enable-background:new 0 0 307.8 45.2;" xml:space="preserve">
<style type="text/css">
	.st0{display:none;}
	.st1{display:none;fill:#FED333;}
	.st2{display:none;fill:#FFFFFF;}
	.st3{fill:#FED333;}
</style>
<g id="orMfy0.tif" class="st0">
	
		<image style="display:inline;overflow:visible;" width="174" height="164" id="Layer_0" xlink:href="660F8EB3A74FD49D.png"  transform="matrix(0.4368 0 0 0.4329 -18.1228 -12.4142)">
	</image>
</g>
<path class="st1" d="M9.9,44.5l13.6-6.3c0.2-0.1,0.5-0.1,0.7,0l13.7,6.4c0.6,0.3,1.3-0.2,1.2-0.9L37.3,29c0-0.2,0-0.5,0.2-0.7
	l10.1-11c0.4-0.5,0.2-1.2-0.4-1.4l-14.8-3.7c-0.2-0.1-0.4-0.2-0.5-0.4L24.6-1c-0.3-0.6-1.2-0.6-1.5,0l-7.3,12.8
	c-0.1,0.2-0.3,0.3-0.5,0.4L0.5,15.9c-0.6,0.2-0.9,1-0.4,1.4l11,11c0.2,0.2,0.3,0.5,0.2,0.8L8.7,43.5C8.5,44.2,9.2,44.7,9.9,44.5z"/>
<path class="st2" d="M21.9,42.6"/>
<g>
	<g>
		<path class="st3" d="M284.2,0.3l7.3,13.6c0.1,0.1,0.2,0.3,0.4,0.3l15.4,2.8c0.4,0.1,0.6,0.6,0.3,0.9l-10.9,11.4
			c-0.1,0.1-0.2,0.3-0.1,0.4l1.8,14.8c0.1,0.4-0.4,0.7-0.8,0.6l-13.9-6.5c-0.1-0.1-0.3-0.1-0.5,0l-13.9,6.5
			c-0.4,0.2-0.8-0.1-0.8-0.6l1.8-14.8c0-0.2,0-0.3-0.1-0.4l-10.2-11.1c-0.3-0.3-0.1-0.8,0.3-0.9l14.8-2.8c0.2,0,0.3-0.1,0.4-0.3
			l7.6-14C283.4-0.1,284-0.1,284.2,0.3z"/>
	</g>
	<g>
		<path class="st3" d="M219.2,0.3l7.3,13.6c0.1,0.1,0.2,0.3,0.4,0.3l15.4,2.8c0.4,0.1,0.6,0.6,0.3,0.9l-10.9,11.4
			c-0.1,0.1-0.2,0.3-0.1,0.4l1.8,14.8c0.1,0.4-0.4,0.7-0.8,0.6l-13.9-6.5c-0.1-0.1-0.3-0.1-0.5,0l-13.9,6.5
			c-0.4,0.2-0.8-0.1-0.8-0.6l1.8-14.8c0-0.2,0-0.3-0.1-0.4l-10.2-11.1c-0.3-0.3-0.1-0.8,0.3-0.9l14.8-2.8c0.2,0,0.3-0.1,0.4-0.3
			l7.6-14C218.4-0.1,219-0.1,219.2,0.3z"/>
	</g>
	<g>
		<path class="st3" d="M154.2,0.3l7.3,13.6c0.1,0.1,0.2,0.3,0.4,0.3l15.4,2.8c0.4,0.1,0.6,0.6,0.3,0.9l-10.9,11.4
			c-0.1,0.1-0.2,0.3-0.1,0.4l1.8,14.8c0.1,0.4-0.4,0.7-0.8,0.6l-13.9-6.5c-0.1-0.1-0.3-0.1-0.5,0l-13.9,6.5
			c-0.4,0.2-0.8-0.1-0.8-0.6l1.8-14.8c0-0.2,0-0.3-0.1-0.4l-10.2-11.1c-0.3-0.3-0.1-0.8,0.3-0.9l14.8-2.8c0.2,0,0.3-0.1,0.4-0.3
			l7.6-14C153.4-0.1,154-0.1,154.2,0.3z"/>
	</g>
	<g>
		<path class="st3" d="M89.2,0.3l7.3,13.6c0.1,0.1,0.2,0.3,0.4,0.3l15.4,2.8c0.4,0.1,0.6,0.6,0.3,0.9l-10.9,11.4
			c-0.1,0.1-0.2,0.3-0.1,0.4l1.8,14.8c0.1,0.4-0.4,0.7-0.8,0.6l-13.9-6.5c-0.1-0.1-0.3-0.1-0.5,0l-13.9,6.5
			c-0.4,0.2-0.8-0.1-0.8-0.6l1.8-14.8c0-0.2,0-0.3-0.1-0.4L65.1,18.3c-0.3-0.3-0.1-0.8,0.3-0.9l14.8-2.8c0.2,0,0.3-0.1,0.4-0.3
			l7.6-14C88.4-0.1,89-0.1,89.2,0.3z"/>
	</g>
	<g>
		<path class="st3" d="M24.2,0.3l7.3,13.6c0.1,0.1,0.2,0.3,0.4,0.3l15.4,2.8c0.4,0.1,0.6,0.6,0.3,0.9L36.7,29.4
			c-0.1,0.1-0.2,0.3-0.1,0.4l1.8,14.8c0.1,0.4-0.4,0.7-0.8,0.6l-13.9-6.5c-0.1-0.1-0.3-0.1-0.5,0L9.4,45.1C9,45.3,8.5,45,8.6,44.6
			l1.8-14.8c0-0.2,0-0.3-0.1-0.4L0.1,18.3C-0.1,18,0,17.4,0.4,17.4l14.8-2.8c0.2,0,0.3-0.1,0.4-0.3l7.6-14C23.4-0.1,24-0.1,24.2,0.3
			z"/>
	</g>
</g>
</svg>
