<svg height="512pt" viewBox="-8 0 512 512.001" width="512pt" xmlns="http://www.w3.org/2000/svg"><path d="m216.808594 360.210938c0 4.132812 3.367187 7.5 7.5 7.5 4.136718 0 7.5-3.367188 7.5-7.5 0-4.136719-3.363282-7.5-7.5-7.5-4.132813 0-7.5 3.363281-7.5 7.5zm0 0"/><path d="m156.503906 258.921875c20.46875-12.738281 43.917969-19.472656 67.808594-19.472656 23.886719 0 47.335938 6.734375 67.808594 19.472656 1.230468.765625 2.601562 1.132813 3.953125 1.132813 2.503906 0 4.953125-1.253907 6.375-3.539063 2.1875-3.515625 1.109375-8.140625-2.40625-10.332031-22.851563-14.21875-49.039063-21.734375-75.734375-21.734375-26.691406 0-52.878906 7.519531-75.730469 21.734375-3.515625 2.1875-4.59375 6.8125-2.40625 10.332031 2.1875 3.515625 6.8125 4.59375 10.332031 2.40625zm0 0"/><path d="m273.84375 293.402344c2.539062 0 5.019531-1.292969 6.425781-3.625 2.140625-3.546875 1.003907-8.15625-2.542969-10.296875-16.199218-9.78125-34.667968-14.949219-53.417968-14.949219-18.742188 0-37.214844 5.167969-53.414063 14.949219-3.546875 2.140625-4.683593 6.75-2.542969 10.296875 2.140626 3.542968 6.75 4.6875 10.296876 2.542968 13.859374-8.367187 29.648437-12.789062 45.660156-12.789062 16.015625 0 31.804687 4.421875 45.664062 12.789062 1.214844.734376 2.550782 1.082032 3.871094 1.082032zm0 0"/><path d="m251.539062 326.855469c2.628907 0 5.175782-1.378907 6.550782-3.835938 2.027344-3.613281.734375-8.183593-2.878906-10.207031-9.714844-5.441406-20.113282-8.199219-30.898438-8.199219-10.789062 0-21.183594 2.757813-30.902344 8.199219-3.613281 2.023438-4.902344 6.59375-2.878906 10.207031 2.023438 3.617188 6.59375 4.902344 10.207031 2.878907 7.453125-4.171876 15.382813-6.285157 23.574219-6.285157 8.1875 0 16.121094 2.113281 23.570312 6.285157 1.160157.652343 2.417969.957031 3.65625.957031zm0 0"/><path d="m468.195312 408.261719c-3.582031-2.074219-8.171874-.855469-10.246093 2.730469-2.078125 3.585937-.855469 8.171874 2.730469 10.25 12.515624 7.246093 20.289062 20.71875 20.289062 35.160156 0 22.386718-18.210938 40.597656-40.597656 40.597656-22.386719 0-40.597656-18.210938-40.597656-40.597656 0-17.464844 10.945312-32.558594 26.859374-38.226563l2.796876 17.402344c-7.480469 3.949219-12.589844 11.800781-12.589844 20.824219 0 12.976562 10.558594 23.53125 23.53125 23.53125 12.976562 0 23.53125-10.554688 23.53125-23.53125 0-11.660156-8.523438-21.359375-19.664063-23.207032l-7.929687-49.335937c1.347656-.074219 2.699218-.117187 4.0625-.117187 7.449218 0 14.792968 1.121093 21.824218 3.332031 3.953126 1.242187 8.160157-.953125 9.402344-4.90625 1.242188-3.949219-.953125-8.160157-4.902344-9.402344-8.492187-2.667969-17.347656-4.023437-26.324218-4.023437-2.171875 0-4.324219.082031-6.453125.238281l-56.121094-349.183594c-1.839844-11.472656-11.613281-19.796875-23.230469-19.796875h-34.4375c-12.976562 0-23.53125 10.558594-23.53125 23.53125 0 12.976562 10.558594 23.53125 23.53125 23.53125h46.859375l16.914063 105.246094h-4.449219c-6.90625 0-13.433594 3.011718-17.910156 8.269531-4.480469 5.253906-6.417969 12.179687-5.324219 18.996094l33.050781 205.644531c-15.96875 11.496094-27.925781 28.222656-33.347656 47.652344h-11.742187c-4.140626 0-7.5 3.359375-7.5 7.5s3.359374 7.5 7.5 7.5h8.53125v8.53125c0 4.707031-3.828126 8.53125-8.535157 8.53125h-266.652343c1.03125-2.644532 1.605468-5.523438 1.605468-8.53125 0-3.007813-.574218-5.882813-1.605468-8.53125h234.59375c4.140624 0 7.5-3.359375 7.5-7.5s-3.359376-7.5-7.5-7.5h-172.074219c-10.433594-37.503906-44.996094-64.128906-84.445313-64.128906-15.410156 0-30.570312 4.058593-43.839844 11.734374-3.585937 2.074219-4.808593 6.664063-2.734374 10.25 2.070312 3.582032 6.660156 4.808594 10.246093 2.734376 10.988281-6.359376 23.550781-9.71875 36.328125-9.71875 31.277344 0 58.855469 20.179687 68.761719 49.128906h-18.390625c-9.054688-19.375-28.664062-32.0625-50.371094-32.0625-30.65625 0-55.597656 24.9375-55.597656 55.597656 0 30.65625 24.941406 55.59375 55.597656 55.59375 21.707032 0 41.316406-12.6875 50.371094-32.0625h238.207031c12.976563 0 23.535157-10.558594 23.535157-23.535156 0-33.539063 22.84375-61.828125 53.789062-70.160156l2.722656 16.949218c-23.230468 6.980469-39.449218 28.339844-39.449218 53.210938 0 30.65625 24.941406 55.597656 55.597656 55.597656s55.597656-24.9375 55.597656-55.597656c0-19.773438-10.640625-38.222656-27.773438-48.140625zm-148.066406-393.261719c4.707032 0 8.53125 3.828125 8.53125 8.53125s-3.828125 8.53125-8.53125 8.53125-8.53125-3.828125-8.53125-8.53125 3.828125-8.53125 8.53125-8.53125zm21.925782 17.0625c1.03125-2.644531 1.605468-5.523438 1.605468-8.53125s-.574218-5.882812-1.605468-8.53125h12.511718c4.210938 0 7.753906 3.019531 8.421875 7.179688l1.589844 9.882812zm-277.925782 424.339844c0 4.707031-3.828125 8.53125-8.53125 8.53125s-8.53125-3.828125-8.53125-8.53125 3.828125-8.53125 8.53125-8.53125 8.53125 3.828125 8.53125 8.53125zm-8.53125 40.597656c-22.386718 0-40.597656-18.210938-40.597656-40.597656 0-22.386719 18.210938-40.597656 40.597656-40.597656 13.335938 0 25.589844 6.558593 33.082032 17.066406h-33.082032c-12.976562 0-23.53125 10.554687-23.53125 23.53125 0 12.976562 10.554688 23.53125 23.53125 23.53125h33.082032c-7.492188 10.507812-19.746094 17.066406-33.082032 17.066406zm347.554688-119.949219-32.121094-199.855469c-.402344-2.507812.28125-4.957031 1.929688-6.886718 1.644531-1.9375 3.953124-3 6.492187-3h6.859375l32.792969 204.046875c-5.546875 1.386719-10.882813 3.304687-15.953125 5.695312zm45.75 79.351563c0 4.707031-3.828125 8.53125-8.53125 8.53125s-8.53125-3.828125-8.53125-8.53125 3.828125-8.53125 8.53125-8.53125 8.53125 3.828125 8.53125 8.53125zm0 0"/></svg>