<svg id="Layer_1" enable-background="new 0 0 512 512" height="512" viewBox="0 0 512 512" width="512" xmlns="http://www.w3.org/2000/svg"><g><g><path d="m473.106 283.645-78.466-110c-1.407-1.974-3.682-3.145-6.105-3.145h-36.109c-4.143 0-7.5 3.357-7.5 7.5s3.357 7.5 7.5 7.5h32.247l11.281 15.814h-86.905l-5.452-15.814h15.574c4.143 0 7.5-3.357 7.5-7.5s-3.357-7.5-7.5-7.5h-195.705c-2.424 0-4.698 1.171-6.106 3.145l-78.466 110c-1.631 2.286-1.848 5.293-.562 7.789 1.286 2.497 3.859 4.066 6.667 4.066h102.5v16.5c0 8.547 6.953 15.5 15.5 15.5h85.5v49.5h-35.499c-6.341 0-11.5 5.159-11.5 11.5v59.366c0 4.143 3.358 7.5 7.5 7.5s7.5-3.357 7.5-7.5v-55.866h79v105h-79v-17.134c0-4.143-3.358-7.5-7.5-7.5s-7.5 3.357-7.5 7.5v20.634c0 6.341 5.159 11.5 11.5 11.5h86c6.341 0 11.5-5.159 11.5-11.5v-112c0-6.341-5.159-11.5-11.5-11.5h-35.5v-49.5h85.5c8.547 0 15.5-6.953 15.5-15.5v-16.5h102.5c2.809 0 5.382-1.569 6.668-4.066 1.285-2.496 1.068-5.503-.562-7.789zm-66.453-67.331 15.693 22h-100.542l-7.585-22zm-200.59 22 7.585-22h84.705l7.585 22zm105.045 15 9.373 27.186h-128.962l9.373-27.186zm-205.76-37h92.433l-7.585 22h-100.541zm187.833-15h-74.362l5.452-15.814h63.457zm-165.852-15.814h81.076l-5.452 15.814h-86.905zm-48.374 67.814h106.07l-9.373 27.186h-116.089zm270.545 58.686c0 .275-.225.5-.5.5h-186c-.276 0-.5-.225-.5-.5v-16.5h187zm-13.152-31.5-9.373-27.186h106.07l19.392 27.186z"/><path d="m255.935 128h.067c12.663 0 24.572-4.923 33.54-13.866 8.983-8.959 13.94-20.881 13.958-33.568.018-12.688-4.907-24.623-13.866-33.607-8.959-8.983-20.881-13.94-33.568-13.958h-.07c-6.295 0-12.417 1.216-18.195 3.614-3.826 1.588-5.64 5.977-4.052 9.802 1.587 3.825 5.977 5.641 9.802 4.052 3.945-1.639 8.132-2.469 12.445-2.469h.048c8.681.012 16.838 3.403 22.968 9.551 6.13 6.146 9.499 14.313 9.487 22.993-.012 8.682-3.403 16.839-9.551 22.969-6.136 6.119-14.283 9.487-22.948 9.487h-.046c-17.92-.024-32.48-14.624-32.456-32.545.005-4.006.729-7.913 2.151-11.613 1.486-3.866-.443-8.205-4.31-9.691-3.868-1.485-8.206.443-9.691 4.311-2.082 5.417-3.142 11.128-3.15 16.974-.034 26.191 21.245 47.528 47.437 47.564z"/><path d="m256.08 22.449h.01c4.138 0 7.494-3.352 7.5-7.489l.01-7.449c.006-4.143-3.347-7.505-7.489-7.511h-.01c-4.138 0-7.494 3.352-7.5 7.489l-.01 7.449c-.007 4.143 3.347 7.505 7.489 7.511z"/><path d="m255.91 138.551c-4.138 0-7.494 3.352-7.5 7.489l-.01 7.449c-.006 4.143 3.348 7.505 7.49 7.511h.01c4.137 0 7.495-3.352 7.5-7.489l.011-7.449c.006-4.143-3.348-7.505-7.49-7.511z"/><path d="m216.802 27.428c1.388 2.411 3.911 3.76 6.507 3.76 1.269 0 2.556-.322 3.734-1.001 3.59-2.066 4.825-6.651 2.759-10.241l-3.716-6.456c-2.067-3.59-6.652-4.827-10.241-2.759-3.59 2.066-4.825 6.651-2.759 10.241z"/><path d="m284.958 130.813c-3.591 2.066-4.826 6.651-2.761 10.241l3.715 6.456c1.388 2.412 3.912 3.761 6.508 3.761 1.269 0 2.555-.322 3.733-1 3.591-2.066 4.826-6.651 2.761-10.241l-3.715-6.456c-2.066-3.592-6.649-4.825-10.241-2.761z"/><path d="m189.071 50.403 6.446 3.733c1.183.686 2.476 1.011 3.752 1.011 2.588 0 5.106-1.341 6.497-3.742 2.076-3.584.853-8.173-2.731-10.249l-6.446-3.733c-3.582-2.075-8.172-.854-10.249 2.731-2.076 3.584-.853 8.173 2.731 10.249z"/><path d="m308.965 119.844 6.446 3.733c1.184.686 2.477 1.011 3.752 1.011 2.588 0 5.106-1.341 6.497-3.742 2.076-3.584.853-8.173-2.731-10.249l-6.446-3.733c-3.583-2.075-8.172-.854-10.249 2.731-2.077 3.584-.853 8.173 2.731 10.249z"/><path d="m182.99 87.9 7.449.01h.01c4.137 0 7.495-3.352 7.5-7.49.005-4.142-3.348-7.504-7.49-7.51l-7.449-.01h-.01c-4.137 0-7.495 3.352-7.5 7.49-.005 4.142 3.348 7.505 7.49 7.51z"/><path d="m321.551 73.09c-4.138 0-7.494 3.352-7.5 7.49-.006 4.142 3.348 7.504 7.49 7.51l7.449.01h.01c4.138 0 7.494-3.352 7.5-7.49.006-4.142-3.348-7.504-7.49-7.51l-7.449-.01z"/><path d="m195.446 106.697-6.456 3.715c-3.59 2.066-4.826 6.651-2.76 10.241 1.387 2.412 3.912 3.761 6.507 3.761 1.269 0 2.555-.322 3.734-1l6.456-3.715c3.59-2.066 4.826-6.651 2.76-10.241-2.066-3.592-6.653-4.825-10.241-2.761z"/><path d="m312.82 55.303c1.269 0 2.555-.322 3.733-1l6.456-3.715c3.591-2.066 4.826-6.651 2.761-10.241-2.065-3.591-6.65-4.825-10.241-2.761l-6.456 3.715c-3.591 2.066-4.826 6.651-2.761 10.241 1.388 2.412 3.913 3.761 6.508 3.761z"/><path d="m216.657 133.465-3.733 6.446c-2.076 3.584-.853 8.173 2.731 10.249 1.184.686 2.476 1.011 3.752 1.011 2.588 0 5.106-1.341 6.497-3.742l3.733-6.446c2.076-3.584.853-8.173-2.731-10.249-3.586-2.076-8.173-.854-10.249 2.731z"/><path d="m285.095 30.267c1.184.686 2.477 1.011 3.752 1.011 2.588 0 5.106-1.341 6.497-3.742l3.733-6.446c2.076-3.584.853-8.173-2.731-10.249-3.582-2.074-8.172-.854-10.249 2.731l-3.733 6.446c-2.077 3.584-.853 8.172 2.731 10.249z"/><path d="m241.681 474.726c1.464 1.464 3.384 2.196 5.303 2.196s3.839-.732 5.303-2.196l16.98-16.981c1.406-1.406 2.196-3.313 2.196-5.303s-.79-3.896-2.197-5.304l-10.602-10.602 11.654-11.654c2.929-2.93 2.929-7.678 0-10.607-2.93-2.928-7.678-2.928-10.607 0l-16.957 16.958c-1.407 1.407-2.197 3.314-2.197 5.304s.79 3.896 2.197 5.304l10.603 10.602-11.677 11.677c-2.928 2.928-2.928 7.676.001 10.606z"/></g></g></svg>