<svg xmlns="http://www.w3.org/2000/svg" viewBox="0 0 509.72 245.16"><defs><style>.cls-1{fill:none;stroke-width:4px;}.cls-1,.cls-3{stroke:#8cc63f;stroke-miterlimit:10;}.cls-2{fill:#fff;}.cls-3{fill:#8cc63f;}</style></defs><title>logo</title><g id="Model"><path class="cls-1" d="M82.73,321.45c-10.72,0-27.65-.07-28.43-.07-4.41,0-5-5.38-5-5.38l-.56-5.92c-.87-9.37,0-19.38.11-28.7q.21-21.12.55-42.23.22-14.57.55-29.13.2-8.43.44-16.85a46.29,46.29,0,0,0,.17-5.39C48.63,167.15,62.84,170.59,66,170.5c0,0,259-4.71,311,1.74q8.6,1.06,17.1,2.72,7.68,1.5,15.24,3.5,6.74,1.78,13.36,4,5.81,2,11.5,4.26,4.86,2,9.62,4.25c2.62,1.25,5.21,2.57,7.75,4,2,1.09,4,2.23,5.88,3.42,1.36.84,2.68,1.75,4,2.62.34.22.71.42,1,.67a3.62,3.62,0,0,1,1.46,2.15,9.54,9.54,0,0,1-.26,2.86,14.87,14.87,0,0,1-2.13,5.76,13.7,13.7,0,0,1-4,3.72c-1.72,1.12-4.6,1.08-6.57,1.08l3,2.7,2.54,2,6.66,5.33,9.33,7.48,10.56,8.47,10.34,8.29,8.69,7q3.11,2.5,6.28,4.84a11.83,11.83,0,0,0,4.36,1.57q2.06.51,4.08,1c3.11.83,6.22,1.71,9.26,2.76.64.22,1.27.45,1.9.7,7,2.7,24,41.39,24,41.39,1,1.8,2,10.79,2,10.79-3,7.2-7,8.1-7,8.1-2,.46-4.58.16-6.67.23-3.21.11-6.42.11-9.64.11a25.92,25.92,0,0,0-3.17.12c-1.17.13-2.34.3-3.52.34" transform="translate(-46.32 -166.84)"/><rect class="cls-1" x="190.46" y="29.01" width="36.71" height="48.36" rx="3"/><rect class="cls-1" x="56.18" y="29.6" width="104" height="60.77" rx="3"/><path class="cls-1" d="M478.5,247.83" transform="translate(-46.32 -166.84)"/><path class="cls-1" d="M476.15,244.32" transform="translate(-46.32 -166.84)"/><path class="cls-1" d="M490.69,271c3.68,0,7.38-.37,11-.2a74.75,74.75,0,0,1,14,2.5,56.57,56.57,0,0,1,7.86,2.4c7.83,3.13,9.4,6.26,9.4,6.26l12.53,18.8-3.13-1.57c-3.13-1.57-25.06-6.26-31.32-7.83-3-.76-7.05-3.92-7.05-3.92l-7.83-7.83S487.55,271,490.69,271Z" transform="translate(-46.32 -166.84)"/><path class="cls-1" d="M370.5,305" transform="translate(-46.32 -166.84)"/><path class="cls-1" d="M373.5,324" transform="translate(-46.32 -166.84)"/><path class="cls-1" d="M297,257.5" transform="translate(-46.32 -166.84)"/><rect class="cls-1" x="258.18" y="40.07" width="35" height="59.27" rx="3"/><path class="cls-1" d="M103.94,402.5" transform="translate(-46.32 -166.84)"/><polygon class="cls-1" points="337.68 48.66 337.68 90.33 433.68 90.33 385.68 48.66 337.68 48.66"/><rect class="cls-2" x="182.68" y="138.66" width="233" height="106.5"/><rect class="cls-2" x="41.68" y="142.66" width="86" height="94"/><rect class="cls-2" x="471.68" y="143.66" width="16" height="79"/><path class="cls-1" d="M175.57,362s24.43,26.5,52.43.5" transform="translate(-46.32 -166.84)"/><path class="cls-1" d="M465.57,362s24.43,26.5,52.43.5" transform="translate(-46.32 -166.84)"/></g><g id="Tekst"><path class="cls-3" d="M88,326V289.5h37.84v7.9H97.06v23.05h27.23v7.79H97.05v26.3H127.4v7.9H88V326" transform="translate(-46.32 -166.84)"/><path class="cls-3" d="M171.36,359.44a30.53,30.53,0,0,1-13.55,2.83c-14.23,0-23.48-10-23.48-25.06s9.95-26.07,25.35-26.06a27.71,27.71,0,0,1,11.89,2.54l-2,6.9a19.2,19.2,0,0,0-9.94-2.34c-10.81,0-16.66,8.31-16.67,18.56,0,11.36,7,18.36,16.37,18.36a23.44,23.44,0,0,0,10.53-2.43Z" transform="translate(-46.32 -166.84)"/><path class="cls-3" d="M223.5,336.33c0,18.16-12.09,26.07-23.49,26.06-12.77,0-22.61-9.75-22.6-25.27,0-16.43,10.34-26.06,23.39-26.06C214.35,311.07,223.51,321.32,223.5,336.33Zm-37.42.49c0,10.76,5.94,18.87,14.32,18.88,8.19,0,14.33-8,14.33-19.07,0-8.32-4-18.87-14.12-18.87S186.08,327.49,186.08,336.82Z" transform="translate(-46.32 -166.84)"/><path class="cls-3" d="M280.51,359.07c-3.12,1.63-9.36,3.25-17.35,3.24-18.51,0-32.45-12.18-32.44-34.6,0-21.4,13.95-35.9,34.31-35.9,8.19,0,13.35,1.83,15.6,3.05l-2.05,7.2a29.93,29.93,0,0,0-13.26-2.84c-15.39,0-25.63,10.23-25.63,28.19,0,16.74,9.25,27.49,25.23,27.5a32.73,32.73,0,0,0,13.84-2.84Z" transform="translate(-46.32 -166.84)"/><path class="cls-3" d="M316.28,361.32l-.68-6.19h-.29a17.39,17.39,0,0,1-14.43,7.3c-9.55,0-14.42-7-14.42-14.11,0-11.86,10.14-18.35,28.36-18.25v-1c0-4.06-1.07-11.36-10.72-11.36a22.73,22.73,0,0,0-12.28,3.64l-1.95-5.88a28.4,28.4,0,0,1,15.5-4.36c14.42,0,17.93,10.25,17.92,20.09v18.37a72.36,72.36,0,0,0,.77,11.76ZM315,336.26c-9.36-.2-20,1.52-20,11.05,0,5.78,3.7,8.52,8.08,8.53a11.8,11.8,0,0,0,11.41-8.22,9.68,9.68,0,0,0,.49-2.84Z" transform="translate(-46.32 -166.84)"/><path class="cls-3" d="M337.15,325.52c0-5.07-.1-9.23-.39-13.29h7.5l.39,7.92h.29c2.64-4.67,7-9,14.82-9,6.43,0,11.3,4.06,13.35,9.85h.19a20,20,0,0,1,5.27-6.39A15.66,15.66,0,0,1,389,311.13c6.24,0,15.5,4.27,15.49,21.31v28.91H396.1V333.56c0-9.44-3.31-15.12-10.23-15.12-4.87,0-8.67,3.75-10.13,8.11a15.19,15.19,0,0,0-.69,4.46v30.33h-8.39V331.92c0-7.81-3.31-13.49-9.84-13.49-5.36,0-9.26,4.46-10.62,8.92a12.7,12.7,0,0,0-.68,4.36v29.62h-8.38Z" transform="translate(-46.32 -166.84)"/><path class="cls-3" d="M418.43,328.29c0-6.29-.2-11.36-.39-16h7.7l.39,8.42h.19a18.41,18.41,0,0,1,16.77-9.53c11.4,0,20,10.05,20,25,0,17.65-10.34,26.37-21.45,26.36-6.24,0-11.69-2.84-14.52-7.71h-.19v26.68h-8.48Zm8.47,13.09a20.42,20.42,0,0,0,.39,3.65,13.34,13.34,0,0,0,12.86,10.45c9.06,0,14.33-7.7,14.33-19,0-9.84-5-18.26-14-18.27-5.84,0-11.3,4.36-13,11.06a15.05,15.05,0,0,0-.59,3.65Z" transform="translate(-46.32 -166.84)"/><path class="cls-3" d="M478.65,338.46c.19,12.07,7.6,17,16.17,17A29.81,29.81,0,0,0,507.88,353l1.46,6.39c-3,1.42-8.18,3-15.69,3-14.52,0-23.19-9.95-23.19-24.76s8.39-26.47,22.13-26.47c15.4,0,19.49,14.11,19.49,23.14a36.72,36.72,0,0,1-.29,4.16Zm25.15-6.39c.09-5.68-2.24-14.5-11.89-14.51-8.67,0-12.48,8.32-13.16,14.5Z" transform="translate(-46.32 -166.84)"/><path class="cls-3" d="M531.18,335.23V361.4H522.7V327.62c0-5.78-.09-10.75-.38-15.32h7.5l.29,9.64h.39c2.15-6.59,7.31-10.75,13.06-10.75a8.66,8.66,0,0,1,2.44.31v8.42a12.08,12.08,0,0,0-2.93-.31c-6,0-10.33,4.77-11.5,11.46a26.77,26.77,0,0,0-.39,4.16" transform="translate(-46.32 -166.84)"/></g></svg>