<?xml version="1.0" encoding="utf-8"?>
<!-- Generator: Adobe Illustrator 24.0.1, SVG Export Plug-In . SVG Version: 6.00 Build 0)  -->
<svg version="1.1" id="Layer_1" xmlns="http://www.w3.org/2000/svg" xmlns:xlink="http://www.w3.org/1999/xlink" x="0px" y="0px"
	 viewBox="0 0 509.7 245.2" style="enable-background:new 0 0 509.7 245.2;" xml:space="preserve">
<style type="text/css">
	.st0{fill:none;stroke:#8CC63F;stroke-width:4;stroke-miterlimit:10;}
	.st1{fill:#8CC63F;stroke:#8CC63F;stroke-miterlimit:10;}
</style>
<title>logo</title>
<path class="st0" d="M27.2,154.6c-10.7,0-18.5-0.1-19.3-0.1c-4.4,0-5-5.4-5-5.4l-0.6-5.9c-0.9-9.4,0-19.4,0.1-28.7
	c0.1-14.1,0.3-28.2,0.5-42.2c0.1-9.7,0.3-19.4,0.5-29.1c0.1-5.6,0.3-11.2,0.4-16.9c0.2-1.8,0.2-3.6,0.2-5.4
	C2.3,0.3,16.5,3.8,19.7,3.7c0,0,259-4.7,311,1.7c5.7,0.7,11.4,1.6,17.1,2.7c5.1,1,10.2,2.2,15.2,3.5c4.5,1.2,8.9,2.5,13.4,4
	c3.9,1.3,7.7,2.8,11.5,4.3c3.2,1.3,6.4,2.8,9.6,4.2c2.6,1.2,5.2,2.6,7.8,4c2,1.1,4,2.2,5.9,3.4c1.4,0.8,2.7,1.8,4,2.6
	c0.3,0.2,0.7,0.4,1,0.7c0.7,0.5,1.3,1.3,1.5,2.1c0.1,1,0,1.9-0.3,2.9c-0.3,2-1,4-2.1,5.8c-1.1,1.5-2.4,2.8-4,3.7
	c-1.7,1.1-4.6,1.1-6.6,1.1l3,2.7l2.5,2l6.7,5.3l9.3,7.5l10.6,8.5l10.3,8.3l8.7,7c2.1,1.7,4.2,3.3,6.3,4.8c1.3,0.8,2.8,1.3,4.4,1.6
	c1.4,0.3,2.7,0.7,4.1,1c3.1,0.8,6.2,1.7,9.3,2.8c0.6,0.2,1.3,0.5,1.9,0.7c7,2.7,24,41.4,24,41.4c1,1.8,2,10.8,2,10.8
	c-3,7.2-7,8.1-7,8.1c-2,0.5-4.6,0.2-6.7,0.2c-3.2,0.1-6.4,0.1-9.6,0.1"/>
<path class="st0" d="M193.5,29h30.7c1.7,0,3,1.3,3,3v42.4c0,1.7-1.3,3-3,3h-30.7c-1.7,0-3-1.3-3-3V32C190.5,30.4,191.8,29,193.5,29z
	"/>
<path class="st0" d="M59.2,29.6h98c1.7,0,3,1.3,3,3v54.8c0,1.7-1.3,3-3,3h-98c-1.7,0-3-1.3-3-3V32.6C56.2,30.9,57.5,29.6,59.2,29.6z
	"/>
<path class="st0" d="M432.2,81"/>
<path class="st0" d="M429.8,77.5"/>
<path class="st0" d="M444.4,104.2c3.7,0,7.4-0.4,11-0.2c4.7,0.4,9.4,1.2,14,2.5c2.7,0.6,5.3,1.4,7.9,2.4c7.8,3.1,9.4,6.3,9.4,6.3
	l12.5,18.8l-3.1-1.6c-3.1-1.6-25.1-6.3-31.3-7.8c-3-0.8-7-3.9-7-3.9l-7.8-7.8C449.8,112.8,441.2,104.2,444.4,104.2z"/>
<path class="st0" d="M324.2,138.2"/>
<path class="st0" d="M327.2,157.2"/>
<path class="st0" d="M250.7,90.7"/>
<path class="st0" d="M261.2,40.1h29c1.7,0,3,1.3,3,3v53.3c0,1.7-1.3,3-3,3h-29c-1.7,0-3-1.3-3-3V43.1
	C258.2,41.4,259.5,40.1,261.2,40.1z"/>
<path class="st0" d="M57.6,235.7"/>
<polygon class="st0" points="337.7,48.7 337.7,90.3 433.7,90.3 385.7,48.7 "/>
<path class="st0" d="M120.3,195.2c0,0,24.4,26.5,52.4,0.5"/>
<path class="st0" d="M410.2,195.2c0,0,24.4,26.5,52.4,0.5"/>
<g id="Tekst">
	<path class="st1" d="M32.7,159.2v-36.5h37.8v7.9H41.7v23H69v7.8H41.7v26.3h30.3v7.9H32.7V159.2"/>
	<path class="st1" d="M116,192.6c-4.2,2-8.9,2.9-13.6,2.8c-14.2,0-23.5-10-23.5-25.1s9.9-26.1,25.4-26.1c4.1,0,8.2,0.8,11.9,2.5
		l-2,6.9c-3-1.7-6.5-2.5-9.9-2.3c-10.8,0-16.7,8.3-16.7,18.6c0,11.4,7,18.4,16.4,18.4c3.7,0,7.3-0.8,10.5-2.4L116,192.6z"/>
	<path class="st1" d="M168.2,169.5c0,18.2-12.1,26.1-23.5,26.1c-12.8,0-22.6-9.8-22.6-25.3c0-16.4,10.3-26.1,23.4-26.1
		C159,144.2,168.2,154.5,168.2,169.5z M130.8,170c0,10.8,5.9,18.9,14.3,18.9c8.2,0,14.3-8,14.3-19.1c0-8.3-4-18.9-14.1-18.9
		S130.8,160.6,130.8,170L130.8,170z"/>
	<path class="st1" d="M225.2,192.2c-3.1,1.6-9.4,3.2-17.4,3.2c-18.5,0-32.4-12.2-32.4-34.6c0-21.4,14-35.9,34.3-35.9
		c8.2,0,13.4,1.8,15.6,3l-2,7.2c-4.1-1.9-8.7-2.9-13.3-2.8c-15.4,0-25.6,10.2-25.6,28.2c0,16.7,9.2,27.5,25.2,27.5
		c4.8,0.1,9.5-0.9,13.8-2.8L225.2,192.2z"/>
	<path class="st1" d="M261,194.5l-0.7-6.2H260c-3.3,4.7-8.7,7.4-14.4,7.3c-9.5,0-14.4-7-14.4-14.1c0-11.9,10.1-18.4,28.4-18.2v-1
		c0-4.1-1.1-11.4-10.7-11.4c-4.4,0-8.6,1.3-12.3,3.6l-2-5.9c4.6-2.9,10-4.4,15.5-4.4c14.4,0,17.9,10.2,17.9,20.1v18.4
		c-0.1,3.9,0.2,7.9,0.8,11.8L261,194.5z M259.7,169.4c-9.4-0.2-20,1.5-20,11c0,5.8,3.7,8.5,8.1,8.5c5.2,0.1,9.8-3.3,11.4-8.2
		c0.3-0.9,0.5-1.9,0.5-2.8L259.7,169.4z"/>
	<path class="st1" d="M281.8,158.7c0-5.1-0.1-9.2-0.4-13.3h7.5l0.4,7.9h0.3c2.6-4.7,7-9,14.8-9c6.4,0,11.3,4.1,13.4,9.9h0.2
		c1.3-2.5,3.1-4.7,5.3-6.4c2.9-2.4,6.6-3.6,10.4-3.5c6.2,0,15.5,4.3,15.5,21.3v28.9h-8.4v-27.8c0-9.4-3.3-15.1-10.2-15.1
		c-4.9,0-8.7,3.8-10.1,8.1c-0.5,1.4-0.7,2.9-0.7,4.5v30.3h-8.4v-29.4c0-7.8-3.3-13.5-9.8-13.5c-5.4,0-9.3,4.5-10.6,8.9
		c-0.5,1.4-0.7,2.9-0.7,4.4v29.6h-8.4L281.8,158.7z"/>
	<path class="st1" d="M363.1,161.5c0-6.3-0.2-11.4-0.4-16h7.7l0.4,8.4h0.2c3.3-6.1,9.8-9.8,16.8-9.5c11.4,0,20,10,20,25
		c0,17.6-10.3,26.4-21.5,26.4c-6.2,0-11.7-2.8-14.5-7.7h-0.2v26.7h-8.5L363.1,161.5z M371.6,174.5c0,1.2,0.2,2.4,0.4,3.6
		c1.3,6,6.7,10.4,12.9,10.5c9.1,0,14.3-7.7,14.3-19c0-9.8-5-18.3-14-18.3c-5.8,0-11.3,4.4-13,11.1c-0.3,1.2-0.5,2.4-0.6,3.6
		L371.6,174.5z"/>
	<path class="st1" d="M423.3,171.6c0.2,12.1,7.6,17,16.2,17c4.5,0.2,8.9-0.7,13.1-2.5l1.5,6.4c-3,1.4-8.2,3-15.7,3
		c-14.5,0-23.2-10-23.2-24.8s8.4-26.5,22.1-26.5c15.4,0,19.5,14.1,19.5,23.1c0,1.4-0.1,2.8-0.3,4.2H423.3z M448.5,165.2
		c0.1-5.7-2.2-14.5-11.9-14.5c-8.7,0-12.5,8.3-13.2,14.5L448.5,165.2z"/>
	<path class="st1" d="M475.9,168.4v26.2h-8.5v-33.8c0-5.8-0.1-10.8-0.4-15.3h7.5l0.3,9.6h0.4c2.2-6.6,7.3-10.8,13.1-10.8
		c0.8,0,1.6,0.1,2.4,0.3v8.4c-1-0.2-1.9-0.3-2.9-0.3c-6,0-10.3,4.8-11.5,11.5C476,165.6,475.9,167,475.9,168.4"/>
</g>
</svg>
